<?xml version="1.0" encoding="utf-8"?>
<!-- Generator: Adobe Illustrator 27.9.0, SVG Export Plug-In . SVG Version: 6.00 Build 0)  -->
<svg version="1.1" id="Layer_1" xmlns="http://www.w3.org/2000/svg" xmlns:xlink="http://www.w3.org/1999/xlink" x="0px" y="0px"
	 viewBox="0 0 1920 1080" enable-background="new 0 0 1920 1080" xml:space="preserve">
     <script>
document.title='Gorji UI Site';
const favicon = document.getElementById('favicon');
favicon.href = "http://bayanbox.ir/view/8546593143134723522/9.gif";
     </script>
<g>
	<linearGradient id="SVGID_1_" gradientUnits="userSpaceOnUse" x1="0.5" y1="540" x2="1919.5" y2="540">
		<stop  offset="0" style="stop-color:#FF7BAB"/>
		<stop  offset="1" style="stop-color:#FF7BAB;stop-opacity:0"/>
	</linearGradient>
	<rect x="0.5" y="0.5" fill="url(#SVGID_1_)" width="1919" height="1079"/>
	<path d="M1919,1v1078H1V1H1919 M1920,0H0v1080h1920V0L1920,0z"/>
</g>
<g>
	
		<linearGradient id="SVGID_00000150081072687727696960000002188277679607014038_" gradientUnits="userSpaceOnUse" x1="603.5" y1="320" x2="1245.5" y2="320">
		<stop  offset="0" style="stop-color:#FF7BAB"/>
		<stop  offset="1" style="stop-color:#FF7BAB;stop-opacity:0"/>
	</linearGradient>
	<rect x="603.5" y="269.5" fill="url(#SVGID_00000150081072687727696960000002188277679607014038_)" width="642" height="101"/>
	<path d="M1245,270v100H604V270H1245 M1246,269H603v102h643V269L1246,269z"/>
</g>
<g>
	
		<linearGradient id="SVGID_00000165940973538669656770000002248740315156010892_" gradientUnits="userSpaceOnUse" x1="603.5" y1="501" x2="1245.5" y2="501">
		<stop  offset="0" style="stop-color:#FF7BAB"/>
		<stop  offset="1" style="stop-color:#FF7BAB;stop-opacity:0"/>
	</linearGradient>
	<rect x="603.5" y="451.5" fill="url(#SVGID_00000165940973538669656770000002248740315156010892_)" width="642" height="99"/>
	<path d="M1245,452v98H604v-98H1245 M1246,451H603v100h643V451L1246,451z"/>
</g>
<g>
	
		<linearGradient id="SVGID_00000035502546590671560110000011216213006923368105_" gradientUnits="userSpaceOnUse" x1="776.5" y1="734.5" x2="1030.5" y2="734.5">
		<stop  offset="0" style="stop-color:#FF7BAB"/>
		<stop  offset="1" style="stop-color:#FF7BAB;stop-opacity:0"/>
	</linearGradient>
	<rect x="776.5" y="676.5" fill="url(#SVGID_00000035502546590671560110000011216213006923368105_)" width="254" height="116"/>
	<path d="M1023,684v101H784V684H1023 M1038,669H769v131h269V669L1038,669z"/>
</g>
<g>
	
		<linearGradient id="SVGID_00000154408528632862257840000002141993891035227531_" gradientUnits="userSpaceOnUse" x1="1414" y1="196" x2="2055" y2="196">
		<stop  offset="0" style="stop-color:#FFFFFF"/>
		<stop  offset="1" style="stop-color:#000000"/>
	</linearGradient>
	<rect x="1414" y="-172" fill="url(#SVGID_00000154408528632862257840000002141993891035227531_)" width="641" height="736"/>
	<path d="M2053-170v732h-637v-732H2053 M2057-174h-645v740h645V-174L2057-174z"/>
</g>
<g>
	
		<linearGradient id="SVGID_00000086669084381795894890000011384706680269364634_" gradientUnits="userSpaceOnUse" x1="999" y1="-181.5" x2="1124" y2="-181.5">
		<stop  offset="0" style="stop-color:#FF7BAB"/>
		<stop  offset="1" style="stop-color:#FF7BAB;stop-opacity:0"/>
	</linearGradient>
	<rect x="999" y="-227" fill="url(#SVGID_00000086669084381795894890000011384706680269364634_)" width="125" height="91"/>
	<path d="M1122-225v87h-121v-87H1122 M1126-229H997v95h129V-229L1126-229z"/>
</g>
<g>
	
		<linearGradient id="SVGID_00000119811415497087269980000004485209617488075173_" gradientUnits="userSpaceOnUse" x1="1551" y1="1" x2="1704" y2="1">
		<stop  offset="0" style="stop-color:#FF7BAB"/>
		<stop  offset="1" style="stop-color:#FF7BAB;stop-opacity:0"/>
	</linearGradient>
	<rect x="1551" y="-67" fill="url(#SVGID_00000119811415497087269980000004485209617488075173_)" width="153" height="136"/>
	<path d="M1702-65V67h-149V-65H1702 M1706-69h-157V71h157V-69L1706-69z"/>
</g>
<g>
	
		<linearGradient id="SVGID_00000167375731597721370300000005017558879811931009_" gradientUnits="userSpaceOnUse" x1="1382" y1="377" x2="1492" y2="377">
		<stop  offset="0" style="stop-color:#FF7BAB"/>
		<stop  offset="1" style="stop-color:#FF7BAB;stop-opacity:0"/>
	</linearGradient>
	<rect x="1382" y="322" fill="url(#SVGID_00000167375731597721370300000005017558879811931009_)" width="110" height="110"/>
	<path d="M1490,324v106h-106V324H1490 M1494,320h-114v114h114V320L1494,320z"/>
</g>
<g>
	
		<linearGradient id="SVGID_00000044137805899900026930000004272100538400705710_" gradientUnits="userSpaceOnUse" x1="1514" y1="621.5" x2="1758" y2="621.5">
		<stop  offset="0" style="stop-color:#FF7BAB"/>
		<stop  offset="1" style="stop-color:#FF7BAB;stop-opacity:0"/>
	</linearGradient>
	<rect x="1514" y="542" fill="url(#SVGID_00000044137805899900026930000004272100538400705710_)" width="244" height="159"/>
	<path d="M1756,544v155h-240V544H1756 M1760,540h-248v163h248V540L1760,540z"/>
</g>
<g>
	
		<linearGradient id="SVGID_00000090252682203065602900000007086156393502349984_" gradientUnits="userSpaceOnUse" x1="1736" y1="-211.5" x2="1835" y2="-211.5">
		<stop  offset="0" style="stop-color:#FF7BAB"/>
		<stop  offset="1" style="stop-color:#FF7BAB;stop-opacity:0"/>
	</linearGradient>
	<rect x="1736" y="-261" fill="url(#SVGID_00000090252682203065602900000007086156393502349984_)" width="99" height="99"/>
	<path d="M1833-259v95h-95v-95H1833 M1837-263h-103v103h103V-263L1837-263z"/>
</g>
<g>
	<g>
		<defs>
			<rect id="SVGID_00000057865558666498562170000015293165852539770532_" x="-60" y="763" width="477" height="706"/>
		</defs>
		<clipPath id="SVGID_00000119829231308466784200000000397957930068341438_">
			<use xlink:href="#SVGID_00000057865558666498562170000015293165852539770532_"  overflow="visible"/>
		</clipPath>
		<g clip-path="url(#SVGID_00000119829231308466784200000000397957930068341438_)">
			<g>
				<defs>
					<rect id="SVGID_00000177449611200868725400000012927273687330391443_" x="-65" y="758" width="487" height="716"/>
				</defs>
				<clipPath id="SVGID_00000090274662745567260770000002109431130382941630_">
					<use xlink:href="#SVGID_00000177449611200868725400000012927273687330391443_"  overflow="visible"/>
				</clipPath>
				<g clip-path="url(#SVGID_00000090274662745567260770000002109431130382941630_)">
					
						<image overflow="visible" width="1016" height="1492" xlink:href="BDDDFAA8.jpg"  transform="matrix(0.48 0 0 0.48 -65.28 757.92)">
					</image>
				</g>
			</g>
		</g>
	</g>
	<path d="M413,767v698H-56V767H413 M417,763H-60v706h477V763L417,763z"/>
</g>
<g>
	<rect x="214" y="871" fill="#FFFFFF" width="154" height="154"/>
	<path d="M366,873v150H216V873H366 M370,869H212v158h158V869L370,869z"/>
</g>
<g>
	<rect x="-35" y="857" fill="#FFFFFF" width="191" height="221"/>
	<path d="M154,859v217H-33V859H154 M158,855H-37v225h195V855L158,855z"/>
</g>
<text transform="matrix(1 0 0 1 842.1118 333.2856)" font-family="'AdobeArabic-Regular'" font-size="70px">Username...</text>
<text transform="matrix(1 0 0 1 839.3474 519.3171)" font-family="'AdobeArabic-Regular'" font-size="70px">Password...</text>
<text transform="matrix(1 0 0 1 839.2319 749)" font-family="'AdobeArabic-Regular'" font-size="70px">Login</text>
<g>
	
		<linearGradient id="SVGID_00000157285226327344177820000001389909181725893027_" gradientUnits="userSpaceOnUse" x1="-29.5" y1="-67" x2="241.5" y2="-67">
		<stop  offset="0" style="stop-color:#FF7BAB"/>
		<stop  offset="1" style="stop-color:#FF7BAB;stop-opacity:0"/>
	</linearGradient>
	<rect x="-29.5" y="-292.5" fill="url(#SVGID_00000157285226327344177820000001389909181725893027_)" width="271" height="451"/>
	<path d="M234-285v436H-22v-436H234 M249-300H-37v466h286V-300L249-300z"/>
</g>
<g>
	
		<linearGradient id="SVGID_00000085217115852305663140000008967512779134781327_" gradientUnits="userSpaceOnUse" x1="127.5" y1="17.5" x2="204.5" y2="17.5">
		<stop  offset="0" style="stop-color:#FF7BAB"/>
		<stop  offset="1" style="stop-color:#FF7BAB;stop-opacity:0"/>
	</linearGradient>
	<rect x="127.5" y="-46.5" fill="url(#SVGID_00000085217115852305663140000008967512779134781327_)" width="77" height="128"/>
	<path d="M197-39V74h-62V-39H197 M212-54h-92V89h92V-54L212-54z"/>
</g>
<g>
	
		<linearGradient id="SVGID_00000118364354042128615520000008902392307885728179_" gradientUnits="userSpaceOnUse" x1="-9.5" y1="-36" x2="66.5" y2="-36">
		<stop  offset="0" style="stop-color:#FF7BAB"/>
		<stop  offset="1" style="stop-color:#FF7BAB;stop-opacity:0"/>
	</linearGradient>
	<rect x="-9.5" y="-101.5" fill="url(#SVGID_00000118364354042128615520000008902392307885728179_)" width="76" height="131"/>
	<path d="M59-94V22H-2V-94H59 M74-109h-91V37h91V-109L74-109z"/>
</g>
<g>
	<rect x="329" y="40" fill="#333333" width="62" height="83"/>
	<path d="M388,43v77h-56V43H388 M394,37h-68v89h68V37L394,37z"/>
</g>
<g>
	<rect x="92" y="234" fill="#333333" width="139" height="183"/>
	<path d="M228,237v177H95V237H228 M234,231H89v189h145V231L234,231z"/>
</g>
<g>
	<rect x="329" y="234" fill="#333333" width="205" height="64"/>
	<path d="M531,237v58H332v-58H531 M537,231H326v70h211V231L537,231z"/>
</g>
<g>
	<rect x="457" y="374" fill="#333333" width="43" height="43"/>
	<path d="M497,377v37h-37v-37H497 M503,371h-49v49h49V371L503,371z"/>
</g>
</svg>
