<?xml version="1.0" encoding="utf-8"?>
<!-- Generator: Adobe Illustrator 27.9.0, SVG Export Plug-In . SVG Version: 6.00 Build 0)  -->
<svg version="1.1" id="Layer_1" xmlns="http://www.w3.org/2000/svg" xmlns:xlink="http://www.w3.org/1999/xlink" x="0px" y="0px"
	 viewBox="0 0 1920 1080" enable-background="new 0 0 1920 1080" xml:space="preserve">
     <script>
document.title='Gorji UI Site';
const favicon = document.getElementById('favicon');
favicon.href = "http://bayanbox.ir/view/8546593143134723522/9.gif";
     </script>
<g>
	<linearGradient id="SVGID_1_" gradientUnits="userSpaceOnUse" x1="0" y1="540" x2="1920" y2="540">
		<stop  offset="0" style="stop-color:#001DFF"/>
		<stop  offset="0.216" style="stop-color:#3D33EB;stop-opacity:0.784"/>
		<stop  offset="0.6041" style="stop-color:#A45ACA;stop-opacity:0.3959"/>
		<stop  offset="0.8737" style="stop-color:#E672B4;stop-opacity:0.1263"/>
		<stop  offset="1" style="stop-color:#FF7BAC;stop-opacity:0"/>
	</linearGradient>
	<rect fill="url(#SVGID_1_)" width="1920" height="1080"/>
	
		<linearGradient id="SVGID_00000037693975931833883670000007891847844016387005_" gradientUnits="userSpaceOnUse" x1="0" y1="540" x2="1920" y2="540">
		<stop  offset="0" style="stop-color:#FF7BAC"/>
		<stop  offset="1" style="stop-color:#FF7BAC;stop-opacity:0"/>
	</linearGradient>
	<path fill="url(#SVGID_00000037693975931833883670000007891847844016387005_)" d="M1919,1v1078H1V1H1919 M1920,0H0v1080h1920V0
		L1920,0z"/>
</g>
<g>
	
		<linearGradient id="SVGID_00000060721985025915463900000011516498621169986953_" gradientUnits="userSpaceOnUse" x1="380" y1="207" x2="1072" y2="207">
		<stop  offset="0" style="stop-color:#4A59FF"/>
		<stop  offset="0.4624" style="stop-color:#A46AD6;stop-opacity:0.5376"/>
		<stop  offset="0.8285" style="stop-color:#E676B8;stop-opacity:0.1715"/>
		<stop  offset="1" style="stop-color:#FF7BAC;stop-opacity:0"/>
	</linearGradient>
	<rect x="380" y="154" fill="url(#SVGID_00000060721985025915463900000011516498621169986953_)" width="692" height="106"/>
	
		<linearGradient id="SVGID_00000063608621726805781250000005802543445368975511_" gradientUnits="userSpaceOnUse" x1="380" y1="207" x2="1072" y2="207">
		<stop  offset="0" style="stop-color:#FF7BAC"/>
		<stop  offset="1" style="stop-color:#FF7BAC;stop-opacity:0"/>
	</linearGradient>
	<path fill="url(#SVGID_00000063608621726805781250000005802543445368975511_)" d="M1071,155v104H381V155H1071 M1072,154H380v106
		h692V154L1072,154z"/>
</g>
<g>
	
		<linearGradient id="SVGID_00000105423954372564793500000000206940515785646525_" gradientUnits="userSpaceOnUse" x1="463" y1="338.5" x2="1234" y2="338.5">
		<stop  offset="0" style="stop-color:#0500C9"/>
		<stop  offset="0.2019" style="stop-color:#3D1BC3;stop-opacity:0.7981"/>
		<stop  offset="0.597" style="stop-color:#A44EB7;stop-opacity:0.403"/>
		<stop  offset="0.8715" style="stop-color:#E66EAF;stop-opacity:0.1285"/>
		<stop  offset="1" style="stop-color:#FF7BAC;stop-opacity:0"/>
	</linearGradient>
	<rect x="463" y="286" fill="url(#SVGID_00000105423954372564793500000000206940515785646525_)" width="771" height="105"/>
	
		<linearGradient id="SVGID_00000176724695335058899860000000149339564662292128_" gradientUnits="userSpaceOnUse" x1="463" y1="338.5" x2="1234" y2="338.5">
		<stop  offset="0" style="stop-color:#FF7BAC"/>
		<stop  offset="1" style="stop-color:#FF7BAC;stop-opacity:0"/>
	</linearGradient>
	<path fill="url(#SVGID_00000176724695335058899860000000149339564662292128_)" d="M1233,287v103H464V287H1233 M1234,286H463v105
		h771V286L1234,286z"/>
</g>
<g>
	
		<linearGradient id="SVGID_00000111184187177834716700000001228521491314800824_" gradientUnits="userSpaceOnUse" x1="597" y1="477.5" x2="1406" y2="477.5">
		<stop  offset="0" style="stop-color:#001DFF"/>
		<stop  offset="0.216" style="stop-color:#3D33EB;stop-opacity:0.784"/>
		<stop  offset="0.6041" style="stop-color:#A45ACA;stop-opacity:0.3959"/>
		<stop  offset="0.8737" style="stop-color:#E672B4;stop-opacity:0.1263"/>
		<stop  offset="1" style="stop-color:#FF7BAC;stop-opacity:0"/>
	</linearGradient>
	<rect x="597" y="429" fill="url(#SVGID_00000111184187177834716700000001228521491314800824_)" width="809" height="97"/>
	
		<linearGradient id="SVGID_00000100362834606400837800000017950693614864357268_" gradientUnits="userSpaceOnUse" x1="597" y1="477.5" x2="1406" y2="477.5">
		<stop  offset="0" style="stop-color:#FF7BAC"/>
		<stop  offset="1" style="stop-color:#FF7BAC;stop-opacity:0"/>
	</linearGradient>
	<path fill="url(#SVGID_00000100362834606400837800000017950693614864357268_)" d="M1405,430v95H598v-95H1405 M1406,429H597v97h809
		V429L1406,429z"/>
</g>
<g>
	
		<linearGradient id="SVGID_00000074427731504278113190000004002503192279737781_" gradientUnits="userSpaceOnUse" x1="677" y1="607" x2="1514" y2="607">
		<stop  offset="0" style="stop-color:#4B00BF"/>
		<stop  offset="0.4598" style="stop-color:#A43DB6;stop-opacity:0.5402"/>
		<stop  offset="0.8276" style="stop-color:#E66AAF;stop-opacity:0.1724"/>
		<stop  offset="1" style="stop-color:#FF7BAC;stop-opacity:0"/>
	</linearGradient>
	<rect x="677" y="557" fill="url(#SVGID_00000074427731504278113190000004002503192279737781_)" width="837" height="100"/>
	
		<linearGradient id="SVGID_00000183240163509870879370000011688824009803005321_" gradientUnits="userSpaceOnUse" x1="677" y1="607" x2="1514" y2="607">
		<stop  offset="0" style="stop-color:#FF7BAC"/>
		<stop  offset="1" style="stop-color:#FF7BAC;stop-opacity:0"/>
	</linearGradient>
	<path fill="url(#SVGID_00000183240163509870879370000011688824009803005321_)" d="M1513,558v98H678v-98H1513 M1514,557H677v100h837
		V557L1514,557z"/>
</g>
<g>
	
		<linearGradient id="SVGID_00000150061278050068628070000011691932146401921427_" gradientUnits="userSpaceOnUse" x1="597" y1="768.5" x2="1477" y2="768.5">
		<stop  offset="0" style="stop-color:#8300E9"/>
		<stop  offset="0.2501" style="stop-color:#A522D8;stop-opacity:0.7499"/>
		<stop  offset="0.7595" style="stop-color:#E662B8;stop-opacity:0.2405"/>
		<stop  offset="1" style="stop-color:#FF7BAC;stop-opacity:0"/>
	</linearGradient>
	<rect x="597" y="720" fill="url(#SVGID_00000150061278050068628070000011691932146401921427_)" width="880" height="97"/>
	
		<linearGradient id="SVGID_00000033352302020775249630000008941975355004587409_" gradientUnits="userSpaceOnUse" x1="597" y1="768.5" x2="1477" y2="768.5">
		<stop  offset="0" style="stop-color:#FF7BAC"/>
		<stop  offset="1" style="stop-color:#FF7BAC;stop-opacity:0"/>
	</linearGradient>
	<path fill="url(#SVGID_00000033352302020775249630000008941975355004587409_)" d="M1476,721v95H598v-95H1476 M1477,720H597v97h880
		V720L1477,720z"/>
</g>
<g>
	
		<linearGradient id="SVGID_00000097459596036306305030000001817703173112742024_" gradientUnits="userSpaceOnUse" x1="463" y1="933" x2="1477" y2="933">
		<stop  offset="0" style="stop-color:#00214A"/>
		<stop  offset="0.216" style="stop-color:#3D3661;stop-opacity:0.784"/>
		<stop  offset="0.6041" style="stop-color:#A45B89;stop-opacity:0.3959"/>
		<stop  offset="0.8737" style="stop-color:#E672A2;stop-opacity:0.1263"/>
		<stop  offset="1" style="stop-color:#FF7BAC;stop-opacity:0"/>
	</linearGradient>
	<rect x="463" y="889" fill="url(#SVGID_00000097459596036306305030000001817703173112742024_)" width="1014" height="88"/>
	
		<linearGradient id="SVGID_00000011729434746180246610000005881187298577918640_" gradientUnits="userSpaceOnUse" x1="463" y1="933" x2="1477" y2="933">
		<stop  offset="0" style="stop-color:#FF7BAC"/>
		<stop  offset="1" style="stop-color:#FF7BAC;stop-opacity:0"/>
	</linearGradient>
	<path fill="url(#SVGID_00000011729434746180246610000005881187298577918640_)" d="M1476,890v86H464v-86H1476 M1477,889H463v88h1014
		V889L1477,889z"/>
</g>
<g>
	
		<linearGradient id="SVGID_00000100383653377541007840000009379658567201538958_" gradientUnits="userSpaceOnUse" x1="1477" y1="109.5" x2="1940" y2="109.5">
		<stop  offset="0" style="stop-color:#001DFF"/>
		<stop  offset="0.216" style="stop-color:#3D33EB;stop-opacity:0.784"/>
		<stop  offset="0.6041" style="stop-color:#A45ACA;stop-opacity:0.3959"/>
		<stop  offset="0.8737" style="stop-color:#E672B4;stop-opacity:0.1263"/>
		<stop  offset="1" style="stop-color:#FF7BAC;stop-opacity:0"/>
	</linearGradient>
	<rect x="1477" y="-226" fill="url(#SVGID_00000100383653377541007840000009379658567201538958_)" width="463" height="671"/>
	
		<linearGradient id="SVGID_00000157288258444585285160000015014234450509989537_" gradientUnits="userSpaceOnUse" x1="1477" y1="109.5" x2="1940" y2="109.5">
		<stop  offset="0" style="stop-color:#FF7BAC"/>
		<stop  offset="1" style="stop-color:#FF7BAC;stop-opacity:0"/>
	</linearGradient>
	<path fill="url(#SVGID_00000157288258444585285160000015014234450509989537_)" d="M1930-216v651h-443v-651H1930 M1940-226h-463v671
		h463V-226L1940-226z"/>
</g>
<g>
	
		<linearGradient id="SVGID_00000021089188051019994830000013634366222226495896_" gradientUnits="userSpaceOnUse" x1="1406" y1="391" x2="1620" y2="391">
		<stop  offset="0" style="stop-color:#13001F"/>
		<stop  offset="0.1594" style="stop-color:#3D1638;stop-opacity:0.8406"/>
		<stop  offset="0.5757" style="stop-color:#A44C76;stop-opacity:0.4243"/>
		<stop  offset="0.8646" style="stop-color:#E66E9D;stop-opacity:0.1354"/>
		<stop  offset="1" style="stop-color:#FF7BAC;stop-opacity:0"/>
	</linearGradient>
	<rect x="1406" y="271" fill="url(#SVGID_00000021089188051019994830000013634366222226495896_)" width="214" height="240"/>
	
		<linearGradient id="SVGID_00000001632998187180436140000000565197510599236767_" gradientUnits="userSpaceOnUse" x1="1406" y1="391" x2="1620" y2="391">
		<stop  offset="0" style="stop-color:#FF7BAC"/>
		<stop  offset="1" style="stop-color:#FF7BAC;stop-opacity:0"/>
	</linearGradient>
	<path fill="url(#SVGID_00000001632998187180436140000000565197510599236767_)" d="M1610,281v220h-194V281H1610 M1620,271h-214v240
		h214V271L1620,271z"/>
</g>
<g>
	
		<linearGradient id="SVGID_00000132791610208847730720000017818762310882326922_" gradientUnits="userSpaceOnUse" x1="1646" y1="557.5" x2="1886" y2="557.5">
		<stop  offset="0" style="stop-color:#5500C9"/>
		<stop  offset="0.4315" style="stop-color:#A439BB;stop-opacity:0.5685"/>
		<stop  offset="0.8186" style="stop-color:#E669B0;stop-opacity:0.1814"/>
		<stop  offset="1" style="stop-color:#FF7BAC;stop-opacity:0"/>
	</linearGradient>
	<path fill="url(#SVGID_00000132791610208847730720000017818762310882326922_)" d="M1830.07,686h-128.14
		c-30.89,0-55.93-25.04-55.93-55.93V484.93c0-30.89,25.04-55.93,55.93-55.93h128.14c30.89,0,55.93,25.04,55.93,55.93v145.14
		C1886,660.96,1860.96,686,1830.07,686z"/>
	
		<linearGradient id="SVGID_00000012471949853834210950000006327034501754189209_" gradientUnits="userSpaceOnUse" x1="1646" y1="557.5" x2="1886" y2="557.5">
		<stop  offset="0" style="stop-color:#FF7BAC"/>
		<stop  offset="1" style="stop-color:#FF7BAC;stop-opacity:0"/>
	</linearGradient>
	<path fill="url(#SVGID_00000012471949853834210950000006327034501754189209_)" d="M1830.07,439c25.33,0,45.93,20.6,45.93,45.93
		v145.14c0,25.33-20.6,45.93-45.93,45.93h-128.14c-25.33,0-45.93-20.6-45.93-45.93V484.93c0-25.33,20.6-45.93,45.93-45.93H1830.07
		 M1830.07,429h-128.14c-30.89,0-55.93,25.04-55.93,55.93v145.14c0,30.89,25.04,55.93,55.93,55.93h128.14
		c30.89,0,55.93-25.04,55.93-55.93V484.93C1886,454.04,1860.96,429,1830.07,429L1830.07,429z"/>
</g>
<g>
	
		<linearGradient id="SVGID_00000127017736240016969040000000832394617148132272_" gradientUnits="userSpaceOnUse" x1="-91" y1="185" x2="90.7145" y2="185">
		<stop  offset="0" style="stop-color:#5500C9"/>
		<stop  offset="0.4315" style="stop-color:#A439BB;stop-opacity:0.5685"/>
		<stop  offset="0.8186" style="stop-color:#E669B0;stop-opacity:0.1814"/>
		<stop  offset="1" style="stop-color:#FF7BAC;stop-opacity:0"/>
	</linearGradient>
	<path fill="url(#SVGID_00000127017736240016969040000000832394617148132272_)" d="M-0.14,844L-0.14,844
		C-50.32,844-91,803.32-91,753.14V-383.14C-91-433.32-50.32-474-0.14-474h0c50.18,0,90.86,40.68,90.86,90.86V753.14
		C90.71,803.32,50.04,844-0.14,844z"/>
	
		<linearGradient id="SVGID_00000118366055161336289160000007324840643002313656_" gradientUnits="userSpaceOnUse" x1="-91" y1="185" x2="90.7144" y2="185">
		<stop  offset="0" style="stop-color:#FF7BAC"/>
		<stop  offset="1" style="stop-color:#FF7BAC;stop-opacity:0"/>
	</linearGradient>
	<path fill="url(#SVGID_00000118366055161336289160000007324840643002313656_)" d="M-0.14-464c44.58,0,80.86,36.27,80.86,80.86
		V753.14c0,44.58-36.27,80.86-80.86,80.86S-81,797.73-81,753.14V-383.14C-81-427.73-44.73-464-0.14-464 M-0.14-474
		C-50.32-474-91-433.32-91-383.14V753.14C-91,803.32-50.32,844-0.14,844s90.86-40.68,90.86-90.86V-383.14
		C90.71-433.32,50.04-474-0.14-474L-0.14-474z"/>
</g>
<g>
	
		<linearGradient id="SVGID_00000081632940572837624740000012722995868627689356_" gradientUnits="userSpaceOnUse" x1="1849.4244" y1="932.7888" x2="2031.1389" y2="932.7888">
		<stop  offset="0" style="stop-color:#5500C9"/>
		<stop  offset="0.4315" style="stop-color:#A439BB;stop-opacity:0.5685"/>
		<stop  offset="0.8186" style="stop-color:#E669B0;stop-opacity:0.1814"/>
		<stop  offset="1" style="stop-color:#FF7BAC;stop-opacity:0"/>
	</linearGradient>
	<path fill="url(#SVGID_00000081632940572837624740000012722995868627689356_)" d="M1940.28,1591.79L1940.28,1591.79
		c-50.18,0-90.86-40.68-90.86-90.86V364.65c0-50.18,40.68-90.86,90.86-90.86h0c50.18,0,90.86,40.68,90.86,90.86v1136.29
		C2031.14,1551.11,1990.46,1591.79,1940.28,1591.79z"/>
	
		<linearGradient id="SVGID_00000036965853551938502610000012547618986840370098_" gradientUnits="userSpaceOnUse" x1="1849.4246" y1="932.7887" x2="2031.1389" y2="932.7887">
		<stop  offset="0" style="stop-color:#FF7BAC"/>
		<stop  offset="1" style="stop-color:#FF7BAC;stop-opacity:0"/>
	</linearGradient>
	<path fill="url(#SVGID_00000036965853551938502610000012547618986840370098_)" d="M1940.28,283.79c44.58,0,80.86,36.27,80.86,80.86
		v1136.29c0,44.58-36.27,80.86-80.86,80.86c-44.58,0-80.86-36.27-80.86-80.86V364.65C1859.42,320.06,1895.7,283.79,1940.28,283.79
		 M1940.28,273.79L1940.28,273.79c-50.18,0-90.86,40.68-90.86,90.86v1136.29c0,50.18,40.68,90.86,90.86,90.86h0
		c50.18,0,90.86-40.68,90.86-90.86V364.65C2031.14,314.47,1990.46,273.79,1940.28,273.79L1940.28,273.79z"/>
</g>
<linearGradient id="SVGID_00000175303609114302487850000012922140627237209229_" gradientUnits="userSpaceOnUse" x1="192.9008" y1="-27.5" x2="851.0992" y2="-27.5">
	<stop  offset="0" style="stop-color:#FF7BAC"/>
	<stop  offset="1" style="stop-color:#FF7BAC;stop-opacity:0"/>
</linearGradient>
<line fill="none" stroke="url(#SVGID_00000175303609114302487850000012922140627237209229_)" stroke-width="10" stroke-miterlimit="10" x1="848" y1="-285" x2="196" y2="230"/>
<linearGradient id="SVGID_00000088123003884062623750000015177123059034963871_" gradientUnits="userSpaceOnUse" x1="192.0064" y1="418.5" x2="483.9936" y2="418.5">
	<stop  offset="0" style="stop-color:#FF7BAC"/>
	<stop  offset="1" style="stop-color:#FF7BAC;stop-opacity:0"/>
</linearGradient>
<line fill="none" stroke="url(#SVGID_00000088123003884062623750000015177123059034963871_)" stroke-width="10" stroke-miterlimit="10" x1="480" y1="607" x2="196" y2="230"/>
<linearGradient id="SVGID_00000142897519079037949070000013217312986647580597_" gradientUnits="userSpaceOnUse" x1="-221.7066" y1="992.5" x2="483.7067" y2="992.5">
	<stop  offset="0" style="stop-color:#FF7BAC"/>
	<stop  offset="1" style="stop-color:#FF7BAC;stop-opacity:0"/>
</linearGradient>
<line fill="none" stroke="url(#SVGID_00000142897519079037949070000013217312986647580597_)" stroke-width="10" stroke-miterlimit="10" x1="-218" y1="1378" x2="480" y2="607"/>
<text transform="matrix(1 0 0 1 547.6797 229.6763)" stroke="#000000" stroke-width="3" stroke-miterlimit="10" font-family="'BankGothicBT-Medium'" font-size="70px">Pytho Codes</text>
<text transform="matrix(1 0 0 1 650.827 352.6275)" stroke="#000000" stroke-width="3" stroke-miterlimit="10" font-family="'BankGothicBT-Medium'" font-size="70px">Use From AI</text>
<text transform="matrix(1 0 0 1 766.0686 493.6276)" stroke="#000000" stroke-width="3" stroke-miterlimit="10" font-family="'BankGothicBT-Medium'" font-size="70px">Have Security</text>
<text transform="matrix(1 0 0 1 809.989 636.6276)" stroke="#000000" stroke-width="3" stroke-miterlimit="10" font-family="'BankGothicBT-Medium'" font-size="70px">Use Math</text>
<text transform="matrix(1 0 0 1 744.3372 793.6276)" stroke="#000000" stroke-width="3" stroke-miterlimit="10" font-family="'BankGothicBT-Medium'" font-size="70px">Use Rez</text>
<text transform="matrix(1 0 0 1 604.0071 950.6276)" stroke="#000000" stroke-width="3" stroke-miterlimit="10" font-family="'BankGothicBT-Medium'" font-size="70px">Use UI</text>
</svg>
