<?xml version="1.0" encoding="utf-8"?>
<svg version="1.1" id="Layer_1" xmlns="http://www.w3.org/2000/svg" xmlns:xlink="http://www.w3.org/1999/xlink" x="0px" y="0px"
    viewBox="0 0 1920 1080" enable-background="new 0 0 1920 1080" xml:space="preserve">
     <script>
document.title='Gorji UI Site';
const favicon = document.getElementById('favicon');
favicon.href = "http://bayanbox.ir/view/8546593143134723522/9.gif";
     </script>    
    <g>
        <g>
            <defs>
                <rect id="SVGID_1_" width="1920" height="1080"/>
            </defs>
            <clipPath id="SVGID_00000073703053211384392660000013408379534175470749_">
                <use xlink:href="#SVGID_1_" overflow="visible"/>
            </clipPath>
            <g clip-path="url(#SVGID_00000073703053211384392660000013408379534175470749_)">
                <g>
                    <defs>
                        <rect id="SVGID_00000138546977425737298030000013863077372977277856_" x="-5" y="-5" width="1930" height="1090"/>
                    </defs>
                    <clipPath id="SVGID_00000170997574740786713160000003975660699459933581_">
                        <use xlink:href="#SVGID_00000138546977425737298030000013863077372977277856_" overflow="visible"/>
                    </clipPath>
                    <g clip-path="url(#SVGID_00000170997574740786713160000003975660699459933581_)">
                        <defs>
                            <rect id="SVGID_00000051352313167096610760000003373065475560109754_" x="-5" y="-5" width="1930" height="1090"/>
                        </defs>
                        <clipPath id="SVGID_00000097501017240424131330000001191318383109859461_">
                            <use xlink:href="#SVGID_00000051352313167096610760000003373065475560109754_" overflow="visible"/>
                        </clipPath>
                        <g clip-path="url(#SVGID_00000097501017240424131330000001191318383109859461_)">
                            <image overflow="visible" width="4022" height="2272" xlink:href="9AF4BEA9.jpg" transform="matrix(0.48 0 0 0.48 -5.28 -5.28)">
                            </image>
                        </g>
                    </g>
                </g>
            </g>
        </g>
        <path d="M1919,1v1078H1V1H1919 M1920,0H0v1080h1920V0L1920,0z"/>
    </g>
    <g>
        <linearGradient id="SVGID_00000004546278801759189880000003553600352101912974_" gradientUnits="userSpaceOnUse" x1="-248" y1="78.5" x2="240" y2="78.5">
            <stop offset="0" style="stop-color:#FF7BAC"/>
            <stop offset="1" style="stop-color:#FF7BAC;stop-opacity:0"/>
        </linearGradient>
        <path fill="url(#SVGID_00000004546278801759189880000003553600352101912974_)" d="M102.44,337h-212.89
            C-186.41,337-248,275.41-248,199.44V-42.44C-248-118.41-186.41-180-110.44-180h212.89C178.41-180,240-118.41,240-42.44v241.89
            C240,275.41,178.41,337,102.44,337z"/>
    </g>
    <g>
        <linearGradient id="SVGID_00000020375995433362534150000007159179312703835524_" gradientUnits="userSpaceOnUse" x1="1287" y1="1151.5" x2="1644" y2="1151.5">
            <stop offset="0" style="stop-color:#FF7BAC"/>
            <stop offset="1" style="stop-color:#FF7BAC;stop-opacity:0"/>
        </linearGradient>
        <path fill="url(#SVGID_00000020375995433362534150000007159179312703835524_)" d="M1506.42,1342h-81.83
            c-75.99,0-137.58-61.6-137.58-137.58v-105.83c0-75.99,61.6-137.58,137.58-137.58h81.83c75.99,0,137.58,61.6,137.58,137.58v105.83
            C1644,1280.4,1582.4,1342,1506.42,1342z"/>
    </g>
    <g>
        <g>
            <defs>
                <rect id="SVGID_00000123403627530195343490000007356646093541557402_" x="960" y="736" width="282" height="125"/>
            </defs>
            <clipPath id="SVGID_00000013169799186916066110000018174041944102594993_">
                <use xlink:href="#SVGID_00000123403627530195343490000007356646093541557402_" overflow="visible"/>
            </clipPath>
            <g clip-path="url(#SVGID_00000013169799186916066110000018174041944102594993_)">
                <g>
                    <defs>
                        <rect id="SVGID_00000103955737945484823490000002577322210194153912_" x="955" y="731" width="292" height="135"/>
                    </defs>
                    <clipPath id="SVGID_00000075877019110399850670000017431985896382498699_">
                        <use xlink:href="#SVGID_00000103955737945484823490000002577322210194153912_" overflow="visible"/>
                    </clipPath>
                    <g clip-path="url(#SVGID_00000075877019110399850670000017431985896382498699_)">
                        <defs>
                            <rect id="SVGID_00000134955716520942107860000002292620951416834218_" x="955" y="731" width="292" height="135"/>
                        </defs>
                        <clipPath id="SVGID_00000046312897782118803920000014426009829576104375_">
                            <use xlink:href="#SVGID_00000134955716520942107860000002292620951416834218_" overflow="visible"/>
                        </clipPath>
                        <g clip-path="url(#SVGID_00000046312897782118803920000014426009829576104375_)">
                            <image overflow="visible" width="609" height="283" xlink:href="9AF4BEAB.jpg" transform="matrix(0.48 0 0 0.48 954.72 730.56)">
                            </image>
                        </g>
                    </g>
                </g>
            </g>
        </g>
        <path d="M1233,745v107H969V745H1233 M1242,736H960v125h282V736L1242,736z" onclick="payNow()"/>
    </g>
    <text transform="matrix(0.8017 0 0 1 989.5449 818.042)" font-family="'Bauhaus93'" font-size="80px">Pay Now</text>
    <g>
        <radialGradient id="SVGID_00000066514055457501432800000015472849577576919465_" cx="776" cy="423" r="323.6078" gradientTransform="matrix(1.3398 0 0 1.5571 -401.6685 -331.6714)" gradientUnits="userSpaceOnUse">
            <stop offset="0" style="stop-color:#FF7BAC"/>
            <stop offset="1" style="stop-color:#FF7BAC;stop-opacity:0"/>
        </radialGradient>
        <path fill="url(#SVGID_00000066514055457501432800000015472849577576919465_)" d="M1024.21,763H251.79
            c-54.56,0-98.79-44.23-98.79-98.79V-10.21c0-54.56,44.23-98.79,98.79-98.79h772.42c54.56,0,98.79,44.23,98.79,98.79v674.42
            C1123,718.77,1078.77,763,1024.21,763z"/>
    </g>
    <linearGradient id="SVGID_00000102532767889011564580000007563989919725672108_" gradientUnits="userSpaceOnUse" x1="-169" y1="1362" x2="387" y2="1362">
        <stop offset="0" style="stop-color:#FF7BAC"/>
        <stop offset="1" style="stop-color:#FF7BAC;stop-opacity:0"/>
    </linearGradient>
    <path fill="url(#SVGID_00000102532767889011564580000007563989919725672108_)" d="M164.01,1666H53.99
        C-69.16,1666-169,1566.16-169,1443.01v-162.01C-169,1157.84-69.16,1058,53.99,1058h110.01c123.16,0,222.99,99.84,222.99,222.99
        v162.01C387,1566.16,287.16,1666,164.01,1666z"/>
    <linearGradient id="SVGID_00000074413394347438462540000010382702021691210662_" gradientUnits="userSpaceOnUse" x1="1746" y1="-209.5" x2="2318" y2="-209.5">
        <stop offset="0" style="stop-color:#FF7BAC"/>
        <stop offset="1" style="stop-color:#FF7BAC;stop-opacity:0"/>
    </linearGradient>
    <path fill="url(#SVGID_00000074413394347438462540000010382702021691210662_)" d="M2112.8,101H1951.2
        C1837.87,101,1746,9.13,1746-104.2V-314.8c0-113.33,91.87-205.2,205.2-205.2h161.59c113.33,0,205.2,91.87,205.2,205.2v210.59
        C2318,9.13,2226.13,101,2112.8,101z"/>
    <linearGradient id="SVGID_00000129907909090603156460000015086469041129728905_" gradientUnits="userSpaceOnUse" x1="1422.4409" y1="686" x2="1805.353" y2="686">
        <stop offset="0" style="stop-color:#FF7BAC"/>
        <stop offset="1" style="stop-color:#FF7BAC;stop-opacity:0"/>
    </linearGradient>
    <path fill="url(#SVGID_00000129907909090603156460000015086469041129728905_)" d="M1446-350c-50.67,332.1-10.17,578.29,33,737
        c103.36,380.01,306.33,568.67,325,976c7.12,155.37-15.33,282.27-33,359"/>
    <rect x="387" y="101" fill="none" stroke="#000000" stroke-width="2" stroke-miterlimit="10" width="818" height="413"/>
    <text transform="matrix(1 0 0 1 511.4307 260.7183)" font-family="'Bauhaus93'" font-size="80px">Robot</text>
    <text transform="matrix(1 0 0 1 1118.9517 393.1689)" font-family="'Bauhaus93'" font-size="80px">!</text>

    <script type="text/javascript">
        function payNow() {
            alert("ممنون");
            // Add transition to fade out and redirect to main.svg
            document.getElementsByTagName('svg')[0].style.transition = "opacity 1s";
            document.getElementsByTagName('svg')[0].style.opacity = 0;

            // Redirect after fading out
            setTimeout(function() {
                window.location.href = 'main.svg';
            }, 1000); // Wait for the fade out to complete
        }
    </script>
</svg>
